<svg width="32" height="32" viewBox="0 0 32 32" fill="none" xmlns="http://www.w3.org/2000/svg">
<g clip-path="url(#clip0_600_27947)">
<rect x="7" y="5" width="18" height="23" fill="white"/>
<path d="M11.736 11.7563C11.736 11.3149 11.736 10.3943 13.7495 10.3943H18.2459C20.2578 10.3943 20.2578 11.328 20.2578 11.8876L20.261 21.2037L16.6245 19.1475C16.2504 18.9358 15.7925 18.9358 15.4184 19.1459L11.736 21.2103V11.7563Z" fill="#014745"/>
<path fill-rule="evenodd" clip-rule="evenodd" d="M22.9187 31.5896H9.0783C3.89266 31.5896 0.4104 27.9449 0.4104 22.5213V9.47846C0.4104 4.05487 3.89266 0.410156 9.0783 0.410156H22.9203C28.106 0.410156 31.5899 4.05487 31.5899 9.47846V22.5213C31.5899 27.9449 28.1043 31.5896 22.9187 31.5896ZM9.27478 22.1654C9.27478 23.214 10.1281 24.0673 11.1767 24.0673C11.5082 24.0673 11.8348 23.9804 12.1072 23.8245L16.0177 21.6321L19.8905 23.8212C20.8029 24.3365 21.9664 24.005 22.4833 23.0877C22.6392 22.8038 22.7229 22.4838 22.7229 22.1621L22.7197 11.8877C22.7197 9.41136 21.0474 7.9328 18.2462 7.9328H13.7498C10.9896 7.9328 9.27478 9.39823 9.27478 11.7564V22.1654Z" fill="#014745"/>
</g>
<defs>
<clipPath id="clip0_600_27947">
<rect width="32" height="32" fill="white"/>
</clipPath>
</defs>
</svg>
